<?xml version="1.0" standalone="no"?>
<!DOCTYPE svg PUBLIC "-//W3C//DTD SVG 20010904//EN"
 "http://www.w3.org/TR/2001/REC-SVG-20010904/DTD/svg10.dtd">
<svg version="1.0" xmlns="http://www.w3.org/2000/svg"
 width="500.000000pt" height="500.000000pt" viewBox="0 0 500.000000 500.000000"
 preserveAspectRatio="xMidYMid meet">

<g transform="translate(0.000000,500.000000) scale(0.100000,-0.100000)"
fill="#ffffff" stroke="none">
<path d="M868 4990 c-40 -12 -118 -72 -180 -138 -63 -68 -117 -166 -149 -272
-33 -106 -33 -274 0 -418 21 -88 22 -105 10 -112 -171 -100 -233 -144 -320
-230 -137 -136 -193 -252 -219 -453 -19 -143 39 -460 126 -693 216 -583 654
-1199 1160 -1635 259 -223 644 -484 929 -631 183 -94 334 -157 528 -222 212
-70 321 -98 517 -130 543 -89 1010 -47 1356 120 255 124 407 364 359 569 -49
214 -199 319 -480 340 -458 33 -866 172 -1235 420 -198 134 -295 210 -434 345
-296 286 -532 652 -700 1082 -72 184 -94 254 -166 523 -77 288 -149 419 -300
542 -76 62 -237 146 -330 170 -66 18 -309 25 -439 13 l-55 -5 -14 45 c-22 74
-18 234 8 303 27 72 73 133 129 171 58 39 81 79 81 142 0 100 -95 179 -182
154z m432 -1120 c64 -19 171 -80 199 -113 12 -16 7 -17 -60 -17 -41 0 -94 -5
-119 -11 -68 -16 -161 -64 -215 -111 -42 -37 -116 -136 -128 -171 -2 -8 -24
-1 -63 20 -187 99 -391 81 -546 -48 -78 -65 -84 -49 -26 63 60 113 199 231
369 312 201 97 419 125 589 76z m245 -448 c100 -51 127 -96 219 -372 88 -267
171 -466 268 -649 419 -782 1100 -1322 1948 -1545 137 -36 323 -64 493 -74 88
-6 153 -14 160 -21 15 -15 0 -41 -33 -58 -62 -31 -416 -24 -650 13 -140 22
-349 77 -496 130 -152 55 -435 180 -549 242 -110 61 -344 216 -440 292 -208
166 -431 396 -565 582 -72 100 -100 119 -150 98 -33 -14 -55 -59 -44 -92 11
-35 137 -221 222 -327 416 -521 1065 -936 1722 -1101 252 -63 370 -79 645 -89
l190 -7 -48 -22 c-59 -27 -168 -55 -302 -79 -78 -13 -158 -17 -370 -17 -256
-1 -278 1 -420 28 -82 16 -202 42 -265 58 -104 26 -171 48 -410 133 -188 66
-456 211 -717 384 -678 453 -1285 1172 -1489 1768 -34 98 -38 118 -38 218 -1
100 1 114 26 160 69 131 198 185 317 134 50 -21 73 -47 137 -152 100 -163 289
-114 308 80 16 161 18 173 47 213 35 48 67 70 127 86 53 14 112 9 157 -14z"/>
</g>
</svg>
